<svg width="25" height="25" viewBox="0 0 25 25" fill="none" xmlns="http://www.w3.org/2000/svg">
<path d="M21.5918 10.8375V14.2404H19.9107C19.7141 15.0717 19.3801 15.8473 18.9311 16.5449L20.152 17.7584L17.7436 20.1557L16.5041 18.9199C15.8064 19.3467 15.0346 19.6584 14.2107 19.8402V21.5918H10.793V19.7994C9.97656 19.599 9.21211 19.265 8.52559 18.8197L7.25645 20.0814L4.84805 17.6842L6.15801 16.3779C6.0541 16.2072 5.96133 16.0365 5.87227 15.8584C5.59395 15.3277 5.38242 14.7451 5.2377 14.1625H3.4082V10.7596H5.2748C5.33047 10.5369 5.39727 10.318 5.47148 10.099C5.4752 10.0842 5.48262 10.0693 5.48633 10.0545C5.48633 10.0508 5.49004 10.0471 5.49004 10.0396C5.67187 9.5127 5.90937 9.01172 6.19883 8.54785L4.88145 7.23789L7.28984 4.84063L8.59238 6.13574C9.27148 5.70898 10.0248 5.38613 10.8264 5.19316V3.4082H14.207V5.15605C15.0494 5.3416 15.8398 5.66445 16.5486 6.10606L17.7436 4.91856L20.152 7.31582L18.9607 8.49961C19.4061 9.2084 19.7363 9.99512 19.9256 10.8338H21.5918V10.8375ZM18.0738 8.4625L19.1834 7.35664L17.8252 6.00215L16.7305 7.09316C15.8139 6.3918 14.7117 5.9168 13.5131 5.75723V4.18379H11.6094V5.76836C10.4404 5.93906 9.36797 6.40664 8.46992 7.09316L7.29727 5.92422L5.93906 7.27871L7.14141 8.44023C6.47715 9.33086 6.02812 10.3848 5.86484 11.5352H4.18379V13.4314H5.8166L5.87227 13.565C6.04668 14.6672 6.48457 15.684 7.11914 16.5449L5.93164 17.7287L7.28984 19.0832L8.44023 17.8994C9.33086 18.5859 10.3996 19.0572 11.5611 19.2354V20.8199H13.4648V19.2502C14.6523 19.098 15.7396 18.6416 16.6562 17.9588L17.7807 19.0758L19.1018 17.7213L18.0033 16.6266C18.6787 15.7434 19.1426 14.6895 19.3207 13.5428H21.0055V11.6465H19.3467C19.202 10.4664 18.7492 9.3791 18.0738 8.4625V8.4625Z" fill="black"/>
<path d="M12.5372 16.6785C10.2438 16.6785 8.34009 14.8231 8.34009 12.5C8.34009 10.177 10.2475 8.3215 12.5372 8.3215C14.8268 8.3215 16.7342 10.2178 16.7342 12.5C16.7342 14.7822 14.8305 16.6785 12.5372 16.6785ZM12.5372 9.09708C10.6334 9.09708 9.11938 10.6074 9.11938 12.5C9.11938 14.3963 10.6743 15.9029 12.5372 15.9029C14.4 15.9029 15.9549 14.3926 15.9549 12.5C15.9586 10.6037 14.4038 9.09708 12.5372 9.09708Z" fill="black"/>
</svg>
