<svg width="25" height="25" viewBox="0 0 25 25" fill="none" xmlns="http://www.w3.org/2000/svg">
<path d="M13.13 5.35999H11.66V12.71H13.13V5.35999Z" fill="black"/>
<path d="M12.3757 19.6179C8.60114 19.6179 5.53052 16.5471 5.53052 12.7724C5.53052 10.5569 6.61391 8.46779 8.42873 7.18427L9.11606 8.15636C7.61624 9.21707 6.7208 10.9428 6.7208 12.7724C6.7208 15.8907 9.2576 18.4272 12.3755 18.4272C15.4933 18.4272 18.0299 15.8907 18.0299 12.7724C18.0299 10.9428 17.1347 9.21728 15.6351 8.15656L16.3224 7.18448C18.1372 8.46821 19.2206 10.5571 19.2206 12.7724C19.2208 16.5469 16.1502 19.6179 12.3757 19.6179Z" fill="black"/>
</svg>
